<?xml version="1.0" encoding="UTF-8"?>
<!DOCTYPE svg PUBLIC "-//W3C//DTD SVG 1.1//EN" "http://www.w3.org/Graphics/SVG/1.1/DTD/svg11.dtd">
<svg xmlns="http://www.w3.org/2000/svg" version="1.1" width="552px" height="490px" style="shape-rendering:geometricPrecision; text-rendering:geometricPrecision; image-rendering:optimizeQuality; fill-rule:evenodd; clip-rule:evenodd" xmlns:xlink="http://www.w3.org/1999/xlink">
<g><path style="opacity:0.004" fill="#00fffe" d="M 270.5,83.5 C 271.833,84.1667 271.833,84.1667 270.5,83.5 Z"/></g>
<g><path style="opacity:0.024" fill="#2aaad4" d="M 238.5,97.5 C 237.833,96.1667 237.833,96.1667 238.5,97.5 Z"/></g>
<g><path style="opacity:1" fill="#1283aa" d="M 289.5,87.5 C 331.336,105.112 373.003,123.112 414.5,141.5C 414.44,142.043 414.107,142.376 413.5,142.5C 371.395,124.416 330.062,106.083 289.5,87.5 Z"/></g>
<g><path style="opacity:0.753" fill="#1285aa" d="M 261.5,88.5 C 260.036,90.3058 257.702,91.8058 254.5,93C 231.5,102.833 208.5,112.667 185.5,122.5C 184.893,122.376 184.56,122.043 184.5,121.5C 202.69,113.67 220.69,105.67 238.5,97.5C 246.1,94.3007 253.766,91.3007 261.5,88.5 Z"/></g>
<g><path style="opacity:0.998" fill="#12a0cb" d="M 289.5,87.5 C 330.062,106.083 371.395,124.416 413.5,142.5C 414.107,142.376 414.44,142.043 414.5,141.5C 438.816,151.889 463.149,162.389 487.5,173C 493.321,177.176 494.987,182.343 492.5,188.5C 491.067,189.833 489.733,191.333 488.5,193C 474.946,199.861 461.113,206.028 447,211.5C 446.333,236.5 446.333,261.5 447,286.5C 451.439,290.938 455.106,295.938 458,301.5C 463.144,316.065 462.644,330.398 456.5,344.5C 452.587,351.049 446.754,354.715 439,355.5C 426.826,354.004 418.826,347.337 415,335.5C 410.732,317.729 414.565,302.062 426.5,288.5C 427.429,287.311 427.762,285.978 427.5,284.5C 428.117,284.389 428.617,284.056 429,283.5C 429.5,262.169 429.667,240.836 429.5,219.5C 397.674,232.407 366.008,245.907 334.5,260C 335.094,260.464 335.761,260.631 336.5,260.5C 335.486,261.674 334.153,262.34 332.5,262.5C 332.44,261.957 332.107,261.624 331.5,261.5C 316.948,267.943 302.282,274.109 287.5,280C 275.693,282.738 264.36,281.405 253.5,276C 231.958,266.208 210.291,256.708 188.5,247.5C 187.893,247.624 187.56,247.957 187.5,248.5C 186.508,248.672 185.842,248.338 185.5,247.5C 186.738,247.19 186.738,246.69 185.5,246C 175.167,241.5 164.833,237 154.5,232.5C 153.893,232.624 153.56,232.957 153.5,233.5C 152.508,233.672 151.842,233.338 151.5,232.5C 150.07,230.706 147.737,229.206 144.5,228C 118.5,216.667 92.5,205.333 66.5,194C 59.8333,187.667 59.8333,181.333 66.5,175C 102.049,159.058 137.716,143.392 173.5,128C 176.109,127.136 177.775,125.97 178.5,124.5C 179.6,123.442 180.934,122.608 182.5,122C 181.833,121.667 181.167,121.333 180.5,121C 181.928,120.421 183.262,120.588 184.5,121.5C 184.56,122.043 184.893,122.376 185.5,122.5C 208.5,112.667 231.5,102.833 254.5,93C 257.702,91.8058 260.036,90.3058 261.5,88.5C 266.271,86.1149 271.437,85.1149 277,85.5C 281.442,85.3259 285.609,85.9926 289.5,87.5 Z"/></g>
<g><path style="opacity:0.008" fill="#007eff" d="M 199.5,112.5 C 200.833,113.167 200.833,113.167 199.5,112.5 Z"/></g>
<g><path style="opacity:0.004" fill="#00fffe" d="M 157.5,132.5 C 156.833,131.167 156.833,131.167 157.5,132.5 Z"/></g>
<g><path style="opacity:0.004" fill="#00fffe" d="M 440.5,150.5 C 441.833,151.167 441.833,151.167 440.5,150.5 Z"/></g>
<g><path style="opacity:0.004" fill="#00fffe" d="M 71.5,168.5 C 72.8333,169.167 72.8333,169.167 71.5,168.5 Z"/></g>
<g><path style="opacity:0.004" fill="#00fffe" d="M 486.5,169.5 C 487.833,170.167 487.833,170.167 486.5,169.5 Z"/></g>
<g><path style="opacity:0.812" fill="#1483a7" d="M 178.5,124.5 C 177.775,125.97 176.109,127.136 173.5,128C 137.716,143.392 102.049,159.058 66.5,175C 59.8333,181.333 59.8333,187.667 66.5,194C 92.5,205.333 118.5,216.667 144.5,228C 147.737,229.206 150.07,230.706 151.5,232.5C 146.973,230.436 142.307,228.769 137.5,227.5C 114.159,216.501 90.4922,206.001 66.5,196C 57.2877,188.295 57.2877,180.628 66.5,173C 96.9765,159.574 127.31,146.074 157.5,132.5C 164.5,129.833 171.5,127.167 178.5,124.5 Z"/></g>
<g><path style="opacity:0.004" fill="#00fffe" d="M 101.5,212.5 C 102.833,213.167 102.833,213.167 101.5,212.5 Z"/></g>
<g><path style="opacity:0.004" fill="#00fffe" d="M 117.5,219.5 C 118.833,220.167 118.833,220.167 117.5,219.5 Z"/></g>
<g><path style="opacity:0.004" fill="#00fffe" d="M 137.5,227.5 C 136.833,228.167 136.833,228.167 137.5,227.5 Z"/></g>
<g><path style="opacity:1" fill="#1282a8" d="M 153.5,233.5 C 153.56,232.957 153.893,232.624 154.5,232.5C 164.833,237 175.167,241.5 185.5,246C 186.738,246.69 186.738,247.19 185.5,247.5C 174.595,243.381 163.928,238.714 153.5,233.5 Z"/></g>
<g><path style="opacity:0.655" fill="#0f7da3" d="M 427.5,284.5 C 428.633,263.197 428.8,241.864 428,220.5C 397.783,234.516 367.283,247.849 336.5,260.5C 335.761,260.631 335.094,260.464 334.5,260C 366.008,245.907 397.674,232.407 429.5,219.5C 429.667,240.836 429.5,262.169 429,283.5C 428.617,284.056 428.117,284.389 427.5,284.5 Z"/></g>
<g><path style="opacity:0.008" fill="#007eff" d="M 190.5,251.5 C 191.833,252.167 191.833,252.167 190.5,251.5 Z"/></g>
<g><path style="opacity:0.004" fill="#00fffe" d="M 353.5,254.5 C 354.833,255.167 354.833,255.167 353.5,254.5 Z"/></g>
<g><path style="opacity:0.776" fill="#1084aa" d="M 411.5,278.5 C 410.833,271.988 410.167,265.321 409.5,258.5C 375.833,273.333 342.167,288.167 308.5,303C 307.251,303.74 306.251,303.573 305.5,302.5C 321.074,295.871 336.408,288.871 351.5,281.5C 354.241,281.293 356.574,280.293 358.5,278.5C 376.281,271.443 393.948,264.109 411.5,256.5C 411.5,263.833 411.5,271.167 411.5,278.5 Z"/></g>
<g><path style="opacity:0.998" fill="#12a0cb" d="M 199.5,281.5 C 219.582,290.539 239.916,299.039 260.5,307C 276.012,310.097 291.012,308.597 305.5,302.5C 306.251,303.573 307.251,303.74 308.5,303C 342.167,288.167 375.833,273.333 409.5,258.5C 410.167,265.321 410.833,271.988 411.5,278.5C 411.564,281.326 411.897,284.326 412.5,287.5C 411.862,295.629 411.195,303.629 410.5,311.5C 410.657,310.127 410.49,308.793 410,307.5C 409.058,315.111 405.558,321.278 399.5,326C 386.135,332.19 373.468,338.357 361.5,344.5C 345.715,352.385 329.382,359.218 312.5,365C 282.185,373.22 252.518,371.053 223.5,358.5C 220.705,356.052 217.039,353.885 212.5,352C 194.05,344.275 175.716,336.275 157.5,328C 150.299,323.8 145.799,317.633 144,309.5C 143.536,310.094 143.369,310.761 143.5,311.5C 142.694,307.998 142.027,304.331 141.5,300.5C 141.559,289.586 141.892,278.586 142.5,267.5C 143.457,265.95 143.957,262.95 144,258.5C 162.241,266.371 180.407,274.371 198.5,282.5C 199.107,282.376 199.44,282.043 199.5,281.5 Z"/></g>
<g><path style="opacity:1" fill="#1285ab" d="M 199.5,281.5 C 199.44,282.043 199.107,282.376 198.5,282.5C 180.407,274.371 162.241,266.371 144,258.5C 143.957,262.95 143.457,265.95 142.5,267.5C 141.972,266.279 141.305,265.113 140.5,264C 141.833,261.667 141.833,259.333 140.5,257C 141.167,256.833 141.833,256.667 142.5,256.5C 161.638,264.57 180.638,272.904 199.5,281.5 Z"/></g>
<g><path style="opacity:0.698" fill="#1384a9" d="M 187.5,248.5 C 187.56,247.957 187.893,247.624 188.5,247.5C 210.291,256.708 231.958,266.208 253.5,276C 264.36,281.405 275.693,282.738 287.5,280C 302.282,274.109 316.948,267.943 331.5,261.5C 332.107,261.624 332.44,261.957 332.5,262.5C 319.237,268.424 305.904,274.257 292.5,280C 280.414,284.517 268.414,284.184 256.5,279C 233.504,268.836 210.504,258.669 187.5,248.5 Z"/></g>
<g><path style="opacity:0.008" fill="#007eff" d="M 358.5,278.5 C 357.833,277.167 357.833,277.167 358.5,278.5 Z"/></g>
<g><path style="opacity:0.012" fill="#00c5c5" d="M 351.5,281.5 C 350.761,281.631 350.094,281.464 349.5,281C 350.437,280.308 351.103,280.475 351.5,281.5 Z"/></g>
<g><path style="opacity:0.004" fill="#00fffe" d="M 278.5,284.5 C 279.833,285.167 279.833,285.167 278.5,284.5 Z"/></g>
<g><path style="opacity:0.716" fill="#1284aa" d="M 492.5,188.5 C 491.817,192.02 489.817,194.52 486.5,196C 473.833,201.667 461.167,207.333 448.5,213C 448.354,237.294 448.521,261.794 449,286.5C 458.328,295.662 463.161,306.829 463.5,320C 462.836,325.194 462.003,330.694 461,336.5C 460.14,339.633 458.64,342.3 456.5,344.5C 462.644,330.398 463.144,316.065 458,301.5C 455.106,295.938 451.439,290.938 447,286.5C 446.333,261.5 446.333,236.5 447,211.5C 461.113,206.028 474.946,199.861 488.5,193C 489.733,191.333 491.067,189.833 492.5,188.5 Z"/></g>
<g><path style="opacity:0.016" fill="#00bfbe" d="M 293.5,304.5 C 294.833,305.167 294.833,305.167 293.5,304.5 Z"/></g>
<g><path style="opacity:0.004" fill="#00fffe" d="M 140.5,313.5 C 141.833,314.167 141.833,314.167 140.5,313.5 Z"/></g>
<g><path style="opacity:0.004" fill="#00fffe" d="M 408.5,319.5 C 409.833,320.167 409.833,320.167 408.5,319.5 Z"/></g>
<g><path style="opacity:0.008" fill="#007eff" d="M 158.5,331.5 C 159.833,332.167 159.833,332.167 158.5,331.5 Z"/></g>
<g><path style="opacity:0.329" fill="#1482a6" d="M 410.5,311.5 C 409.324,318.009 405.991,323.176 400.5,327C 387.715,333.394 374.715,339.227 361.5,344.5C 373.468,338.357 386.135,332.19 399.5,326C 405.558,321.278 409.058,315.111 410,307.5C 410.49,308.793 410.657,310.127 410.5,311.5 Z"/></g>
<g><path style="opacity:0.992" fill="#1384a9" d="M 223.5,358.5 C 199.649,348.491 175.983,337.991 152.5,327C 147.803,322.766 144.803,317.599 143.5,311.5C 143.369,310.761 143.536,310.094 144,309.5C 145.799,317.633 150.299,323.8 157.5,328C 175.716,336.275 194.05,344.275 212.5,352C 217.039,353.885 220.705,356.052 223.5,358.5 Z"/></g>
<g><path style="opacity:0.004" fill="#00fffe" d="M 199.5,349.5 C 200.833,350.167 200.833,350.167 199.5,349.5 Z"/></g>
<g><path style="opacity:0.004" fill="#00fffe" d="M 244.5,367.5 C 245.833,368.167 245.833,368.167 244.5,367.5 Z"/></g>
</svg>
